<svg width="36" height="36" viewBox="0 0 36 36" fill="none" xmlns="http://www.w3.org/2000/svg">
<g clip-path="url(#clip0_14127_14)">
<path d="M31 0H5C2.23858 0 0 2.23858 0 5V31C0 33.7614 2.23858 36 5 36H31C33.7614 36 36 33.7614 36 31V5C36 2.23858 33.7614 0 31 0Z" fill="#EFEEEC"/>
<path d="M15.5625 18.2027H20.4374M15.5625 21.4459H18M11.5 12.1216V23.8784C11.5 24.3085 11.6712 24.7209 11.9759 25.025C12.2807 25.3292 12.694 25.5 13.125 25.5H22.8749C23.3059 25.5 23.7192 25.3292 24.024 25.025C24.3287 24.7209 24.4999 24.3085 24.4999 23.8784V15.6422C24.4999 15.4261 24.4566 15.2123 24.3726 15.0132C24.2886 14.8141 24.1656 14.6337 24.0108 14.4827L20.4033 10.9622C20.0997 10.6659 19.692 10.5001 19.2674 10.5H13.125C12.694 10.5 12.2807 10.6708 11.9759 10.975C11.6712 11.2791 11.5 11.6915 11.5 12.1216Z" stroke="#6F91B4" stroke-width="1.5" stroke-linecap="round" stroke-linejoin="round"/>
<path d="M19.625 10.5V13.7432C19.625 14.1733 19.7962 14.5858 20.1009 14.8899C20.4057 15.194 20.819 15.3649 21.25 15.3649H24.5" stroke="#6F91B4" stroke-width="1.5" stroke-linejoin="round"/>
</g>
<defs>
<clipPath id="clip0_14127_14">
<rect width="36" height="36" fill="white"/>
</clipPath>
</defs>
</svg>
