<svg width="281" height="87" viewBox="0 0 281 87" fill="none" xmlns="http://www.w3.org/2000/svg">
<rect y="17.8885" width="13.4277" height="53.6653" fill="white"/>
<rect x="53.5723" y="17.8885" width="13.4277" height="53.6653" fill="white"/>
<rect x="13.4277" y="6.10352e-05" width="40.1446" height="13.3123" fill="white"/>
<path d="M105.26 72.84C101.48 72.84 97.9567 72.2333 94.69 71.02C91.47 69.76 88.67 67.9867 86.29 65.7C83.91 63.4133 82.0433 60.73 80.69 57.65C79.3833 54.57 78.73 51.1867 78.73 47.5C78.73 43.8133 79.3833 40.43 80.69 37.35C82.0433 34.27 83.91 31.5867 86.29 29.3C88.7167 27.0133 91.54 25.2633 94.76 24.05C97.98 22.79 101.503 22.16 105.33 22.16C109.577 22.16 113.403 22.9067 116.81 24.4C120.263 25.8467 123.157 27.9933 125.49 30.84L118.21 37.56C116.53 35.6467 114.663 34.2233 112.61 33.29C110.557 32.31 108.317 31.82 105.89 31.82C103.603 31.82 101.503 32.1933 99.59 32.94C97.6767 33.6867 96.02 34.76 94.62 36.16C93.22 37.56 92.1233 39.2167 91.33 41.13C90.5833 43.0433 90.21 45.1667 90.21 47.5C90.21 49.8333 90.5833 51.9567 91.33 53.87C92.1233 55.7833 93.22 57.44 94.62 58.84C96.02 60.24 97.6767 61.3133 99.59 62.06C101.503 62.8067 103.603 63.18 105.89 63.18C108.317 63.18 110.557 62.7133 112.61 61.78C114.663 60.8 116.53 59.33 118.21 57.37L125.49 64.09C123.157 66.9367 120.263 69.1067 116.81 70.6C113.403 72.0933 109.553 72.84 105.26 72.84ZM166.748 23H178.088V72H166.748V23ZM144.488 72H133.148V23H144.488V72ZM167.588 51.91H143.648V42.32H167.588V51.91ZM183.241 72L205.081 23H216.281L238.191 72H226.291L208.371 28.74H212.851L194.861 72H183.241ZM194.161 61.5L197.171 52.89H222.371L225.451 61.5H194.161ZM250.964 72V32.24H235.284V23H277.984V32.24H262.304V72H250.964Z" fill="white"/>
</svg>
