<svg width="24" height="24" viewBox="0 0 24 24" fill="none" xmlns="http://www.w3.org/2000/svg">
<path fill-rule="evenodd" clip-rule="evenodd" d="M13.9101 13.6965C12.1918 15.4148 9.40587 15.4148 7.68756 13.6965C5.96925 11.9782 5.96925 9.19229 7.68756 7.47399C9.40587 5.75568 12.1918 5.75568 13.9101 7.47399C15.6284 9.19229 15.6284 11.9782 13.9101 13.6965ZM14.4386 15.3561C12.0863 17.1553 8.70758 16.9793 6.55619 14.8279C4.21304 12.4848 4.21304 8.68576 6.55619 6.34262C8.89933 3.99947 12.6983 3.99947 15.0415 6.34262C17.1928 8.49391 17.3689 11.8724 15.5699 14.2247L19.8499 18.5047L18.7186 19.6361L14.4386 15.3561Z" fill="#6F91B4"/>
</svg>
